<svg id="b" data-name="Layer 2" xmlns="http://www.w3.org/2000/svg" viewBox="0 0 283.46 63.14" width="230">
  <g id="c" data-name="Layer 1">
    <g>
      <path d="m275.8,26.1v13.15c0,1.09.17,2.25.7,3.22.55,1.01,1.96,1.16,2.98,1.16.54,0,1.08-.06,1.61-.16.35-.06.7-.16,1.04-.28l.6-.21-1.79,7.29h-.26s-.03.01-.03.01h-.03c-.91.14-1.82.23-2.74.23-1.69,0-3.57-.19-5.12-.89-1.25-.56-2.35-1.37-3.17-2.47-.8-1.07-1.32-2.28-1.6-3.58-.3-1.4-.42-2.83-.42-4.26V11.12l8.23-1.55v9.66h7.67v6.88h-7.67Z" style="fill: #373435; fill-rule: evenodd; stroke-width: 0px;"></path>
      <path d="m129.67,3.83c2.91,0,5.26,2.36,5.26,5.26s-2.36,5.26-5.26,5.26-5.26-2.36-5.26-5.26,2.36-5.26,5.26-5.26" style="fill: #231f20; fill-rule: evenodd; stroke-width: 0px;"></path>
      <path d="m255.71,19.2h7.09v6.9h-7.09v24.41h-8.36v-24.41h-5.81v-6.9h5.81v-4.87c0-1.8.2-3.6.62-5.35.4-1.66,1.08-3.21,2.11-4.57,1.03-1.38,2.37-2.41,3.92-3.14,1.87-.88,4.04-1.15,6.09-1.15.72,0,1.47.02,2.19.1.61.07,1.22.2,1.81.37l.33.1-1.63,6.92c-1.53-.26-3.36-.56-4.75.31-.61.38-1.1.89-1.44,1.53-.36.67-.58,1.39-.7,2.14-.12.76-.19,1.54-.19,2.31v5.32Z" style="fill: #373435; fill-rule: evenodd; stroke-width: 0px;"></path>
      <path d="m235.53,28.4c1.7,3.86,1.69,8.9,0,12.76-.82,1.87-1.94,3.55-3.42,4.96-1.48,1.41-3.21,2.47-5.11,3.23-2.01.8-4.11,1.17-6.27,1.17s-4.26-.37-6.27-1.17c-1.9-.76-3.63-1.81-5.11-3.23-1.48-1.41-2.6-3.09-3.42-4.96-1.69-3.86-1.7-8.9,0-12.76.82-1.85,1.94-3.51,3.42-4.9,1.48-1.39,3.21-2.43,5.11-3.14,2.01-.75,4.12-1.1,6.26-1.1s4.25.35,6.26,1.1c1.9.71,3.63,1.74,5.11,3.14,1.48,1.39,2.6,3.05,3.42,4.9m-7.27,9.63c.65-2.13.66-4.37,0-6.51-.32-1.04-.81-2-1.48-2.86-.67-.87-1.51-1.54-2.48-2.04-1.1-.57-2.34-.78-3.57-.78s-2.47.21-3.57.78c-.98.5-1.81,1.17-2.48,2.04-.66.86-1.15,1.83-1.48,2.86-.66,2.13-.65,4.37,0,6.51.32,1.05.8,2.03,1.48,2.9.68.87,1.51,1.55,2.48,2.07,1.1.59,2.33.81,3.57.81s2.47-.22,3.56-.81c.97-.52,1.81-1.2,2.48-2.07.67-.87,1.16-1.85,1.48-2.9Z" style="fill: #373435; fill-rule: evenodd; stroke-width: 0px;"></path>
      <path d="m188.15,43.63c1.65,0,4.31-.33,4.31-2.5s-4.01-2.47-5.51-2.72c-.66-.11-1.31-.24-1.97-.36-.81-.15-1.61-.34-2.4-.58-.86-.26-1.71-.59-2.52-.99-.85-.43-1.63-.98-2.31-1.63-.72-.68-1.29-1.49-1.71-2.39-.48-1.04-.65-2.97-.65-4.12,0-1.57.3-3.17,1.15-4.51.74-1.16,1.72-2.13,2.91-2.82,1.17-.69,2.45-1.14,3.78-1.4,1.39-.27,2.82-.39,4.23-.39h10.8v6.88h-11.64c-1.41.06-3.79.05-3.79,2.01,0,2.36,5.47,3.37,7.21,3.62.91.13,1.83.32,2.71.57.86.24,1.69.56,2.5.95.85.42,1.64.95,2.32,1.61.73.7,1.29,1.56,1.69,2.49.96,2.2.83,5.8-.23,7.95-.59,1.19-1.43,2.19-2.51,2.96-1.11.8-2.39,1.35-3.71,1.71-1.73.46-3.55.54-5.33.54h-11.35v-6.87c4.01,0,8.01-.01,12.02-.01" style="fill: #373435; fill-rule: evenodd; stroke-width: 0px;"></path>
      <path d="m169.45,28.4c1.7,3.86,1.69,8.9,0,12.76-.82,1.87-1.94,3.55-3.42,4.96-1.48,1.41-3.21,2.47-5.11,3.23-2.01.8-4.11,1.17-6.27,1.17s-4.27-.37-6.27-1.17c-1.9-.76-3.63-1.81-5.11-3.23-1.48-1.41-2.6-3.09-3.42-4.96-1.69-3.86-1.7-8.9,0-12.76.82-1.85,1.94-3.51,3.42-4.9,1.48-1.39,3.21-2.43,5.11-3.14,2.01-.75,4.12-1.1,6.26-1.1s4.25.35,6.26,1.1c1.9.71,3.63,1.74,5.11,3.14,1.48,1.39,2.6,3.05,3.42,4.9m-7.27,9.63c.65-2.13.66-4.38,0-6.51-.32-1.04-.82-2-1.48-2.86-.67-.87-1.51-1.54-2.48-2.04-1.1-.57-2.34-.78-3.57-.78s-2.47.21-3.57.78c-.98.5-1.81,1.17-2.48,2.04-.66.86-1.15,1.83-1.48,2.86-.66,2.13-.65,4.37,0,6.51.32,1.05.8,2.03,1.48,2.9.68.87,1.51,1.55,2.49,2.07,1.1.59,2.33.81,3.57.81s2.47-.22,3.56-.81c.97-.52,1.81-1.2,2.48-2.07.67-.87,1.16-1.86,1.48-2.9Z" style="fill: #373435; fill-rule: evenodd; stroke-width: 0px;"></path>
      <polygon points="125.55 50.52 125.55 20.57 133.78 19.06 133.78 50.52 125.55 50.52" style="fill: #373435; fill-rule: evenodd; stroke-width: 0px;"></polygon>
      <path d="m116.41,19.2c1.46,0,2.91,0,4.37,0v6.9c-1.46,0-2.91,0-4.37,0-3.45,0-6.37,3.27-6.37,6.63v17.79s-8.22,0-8.22,0v-16.73c0-8.06,6.53-14.58,14.58-14.58" style="fill: #373435; fill-rule: evenodd; stroke-width: 0px;"></path>
      <path d="m89.41,26.1v13.15c0,1.09.17,2.25.7,3.22.55,1.01,1.96,1.16,2.98,1.16.54,0,1.08-.06,1.61-.16.35-.06.7-.16,1.04-.28l.6-.21-1.79,7.29h-.26s-.03.01-.03.01h-.03c-.91.14-1.82.23-2.74.23-1.69,0-3.57-.19-5.12-.89-1.25-.56-2.35-1.37-3.17-2.47-.8-1.07-1.32-2.28-1.6-3.58-.3-1.4-.42-2.83-.42-4.26V11.12l8.23-1.55v9.66h7.67v6.88h-7.67Z" style="fill: #373435; fill-rule: evenodd; stroke-width: 0px;"></path>
      <path d="m12.63,0h50.51c0,6.95-5.68,12.63-12.63,12.63H0C0,5.68,5.68,0,12.63,0" style="fill: #9977FF; fill-rule: evenodd; stroke-width: 0px;"></path>
      <path d="m12.63,25.26h12.63v12.63H0c0-6.95,5.68-12.63,12.63-12.63" style="fill: #9977FF; fill-rule: evenodd; stroke-width: 0px;"></path>
      <path d="m50.51,37.89h-12.63v-12.63h25.26c0,6.95-5.68,12.63-12.63,12.63" style="fill: #9977FF; fill-rule: evenodd; stroke-width: 0px;"></path>
      <path d="m12.63,50.51h12.63v12.63H0c0-6.95,5.68-12.63,12.63-12.63" style="fill: #9977FF; fill-rule: evenodd; stroke-width: 0px;"></path>
      <path d="m50.51,63.14h-12.63v-12.63h25.26c0,6.95-5.68,12.63-12.63,12.63" style="fill: #9977FF; fill-rule: evenodd; stroke-width: 0px;"></path>
    </g>
  </g>
</svg>